<?xml version="1.0" encoding="utf-8"?>
<!-- Generator: Adobe Illustrator 17.0.0, SVG Export Plug-In . SVG Version: 6.00 Build 0)  -->
<!DOCTYPE svg PUBLIC "-//W3C//DTD SVG 1.1//EN" "http://www.w3.org/Graphics/SVG/1.1/DTD/svg11.dtd">
<svg version="1.1" id="Layer_1" xmlns="http://www.w3.org/2000/svg" xmlns:xlink="http://www.w3.org/1999/xlink" x="0px" y="0px"
	 width="100px" height="100px" viewBox="0 0 100 100" enable-background="new 0 0 100 100" xml:space="preserve">
<circle fill="#BFB4AD" cx="49.648" cy="50.118" r="47.067"/>
<path fill="#FFFFFF" d="M25.391,29.67h41.145c2.031,0,3.675,1.127,3.675,2.52l0,0c0,1.392-1.644,2.52-3.675,2.52H25.391"/>
<path fill="#FFFFFF" d="M31.887,33.991v5.571h-4.87v13.323h-5.412l-2.526,5.762h4.87c0,0,11.366-5.582,13.891,6.3h8.48v-9.721
	h-6.317l-3.065-7.562h-1.985l0.181-13.673H31.887z"/>
<path fill="#FFFFFF" d="M21.963,65.848c0-3.877,3.151-7.022,7.036-7.022l0,0c3.887,0,7.037,3.145,7.037,7.022l0,0
	c0,3.878-3.151,7.021-7.037,7.021l0,0C25.114,72.869,21.963,69.726,21.963,65.848L21.963,65.848z"/>
<path fill="#FFFFFF" d="M67.146,65.668c0-3.58,2.906-6.481,6.492-6.481l0,0c3.588,0,6.498,2.901,6.498,6.481l0,0
	c0,3.581-2.91,6.482-6.498,6.482l0,0C70.053,72.15,67.146,69.248,67.146,65.668L67.146,65.668z"/>
<path fill="#FFFFFF" d="M62.166,33.991l5.3,16.013H79.2c0,0,4.542,3.961,4.542,7.562c0,3.6,0,1.26,0,1.26h-4.354
	c0,0-10.408-4.501-14.759,6.121H44.335v-9.721l15.75-0.18l4.544-5.761l-5.302-15.293"/>
<polyline fill="#FFFFFF" points="64.26,45.683 60.831,44.602 60.831,41.723 59.208,41.723 59.208,45.683 59.208,48.474 
	60.831,48.474 60.65,46.223 66.006,48.474 "/>
<polygon fill="#FFFFFF" points="38.021,44.063 40.544,53.245 50.648,53.245 50.648,50.904 41.989,50.724 40.185,44.063 "/>
</svg>
