<?xml version="1.0" encoding="utf-8"?>
<!-- Generator: Adobe Illustrator 17.0.0, SVG Export Plug-In . SVG Version: 6.00 Build 0)  -->
<!DOCTYPE svg PUBLIC "-//W3C//DTD SVG 1.1//EN" "http://www.w3.org/Graphics/SVG/1.1/DTD/svg11.dtd">
<svg version="1.1" id="Layer_1" xmlns="http://www.w3.org/2000/svg" xmlns:xlink="http://www.w3.org/1999/xlink" x="0px" y="0px"
	 width="100px" height="100px" viewBox="0 0 100 100" enable-background="new 0 0 100 100" xml:space="preserve">
<circle fill="#BFB4AD" cx="49.858" cy="50.351" r="47.592"/>
<path fill="#FFFFFF" d="M66.788,73.901"/>
<path fill="#FFFFFF" d="M39.899,82.855V42.833l24.606-4.321c0,0-6.241,14.255-4.599,18.131c1.642,3.876,4.599,4.533,4.599,11.102
	c0,6.569,0,15.11,0,15.11H39.899z"/>
<path fill="none" stroke="#FFFFFF" stroke-width="2" stroke-miterlimit="10" d="M41.777,48.103c0,0-24.412,16.686,3.561,28.84"/>
<path fill="#FFFFFF" d="M48.63,31.054c0,2.907-3.807,5.264-8.503,5.264s-8.503-2.357-8.503-5.264c0-2.907,3.807-3.76,8.503-3.76
	S48.63,28.147,48.63,31.054z"/>
<rect x="45.337" y="31.054" fill="#FFFFFF" width="2.885" height="31.468"/>
<path fill="#FFFFFF" d="M59.634,20.908c0,2.907-3.807,5.264-8.503,5.264c-4.696,0-8.503-2.357-8.503-5.264
	c0-2.907,3.807-3.76,8.503-3.76C55.827,17.147,59.634,18.001,59.634,20.908z"/>
<rect x="56.341" y="20.908" fill="#FFFFFF" width="2.885" height="31.468"/>
</svg>
