<?xml version="1.0" encoding="utf-8"?>
<!-- Generator: Adobe Illustrator 17.0.0, SVG Export Plug-In . SVG Version: 6.00 Build 0)  -->
<!DOCTYPE svg PUBLIC "-//W3C//DTD SVG 1.1//EN" "http://www.w3.org/Graphics/SVG/1.1/DTD/svg11.dtd">
<svg version="1.1" id="Layer_1" xmlns="http://www.w3.org/2000/svg" xmlns:xlink="http://www.w3.org/1999/xlink" x="0px" y="0px"
	 width="300px" height="200px" viewBox="0 0 300 200" enable-background="new 0 0 300 200" xml:space="preserve">
<g>
	<path fill="#0C4838" d="M42.351,148.794h0.186c1.254-4.276,5.53-17.753,7.156-23.701c0.465-1.719,0.511-2.37,0.511-2.974
		c0-0.836-0.511-1.394-2.648-1.394c-0.233,0-0.418-0.139-0.418-0.325c0-0.233,0.232-0.325,0.79-0.325c2.37,0,4.321,0.139,4.74,0.139
		c0.326,0,2.324-0.139,3.765-0.139c0.418,0,0.65,0.092,0.65,0.278c0,0.233-0.139,0.371-0.418,0.371
		c-0.185,0-1.069,0.047-1.579,0.233c-1.395,0.511-2.138,2.463-3.021,5.019c-2.045,5.902-6.739,20.679-8.551,25.883
		c-1.209,3.44-1.44,3.997-1.952,3.997c-0.465,0-0.744-0.603-1.394-2.416l-9.109-25.883h-0.093c-1.672,4.46-8.04,21.515-9.712,25.837
		c-0.744,1.952-0.976,2.463-1.534,2.463c-0.465,0-0.698-0.511-1.627-3.67l-8.271-27.558c-0.744-2.463-1.347-3.159-2.556-3.624
		c-0.604-0.233-1.765-0.279-2.091-0.279c-0.232,0-0.418-0.047-0.418-0.325c0-0.233,0.278-0.325,0.744-0.325
		c2.416,0,4.972,0.139,5.482,0.139c0.419,0,2.464-0.139,4.787-0.139c0.651,0,0.836,0.139,0.836,0.325
		c0,0.278-0.232,0.325-0.465,0.325c-0.371,0-1.254,0-1.812,0.279c-0.279,0.139-0.604,0.511-0.604,1.114
		c0,0.604,0.418,2.231,0.883,4.276c0.698,2.974,5.53,20.028,6.228,22.491h0.092l9.853-26.534c0.696-1.905,0.883-2.138,1.161-2.138
		c0.326,0,0.604,0.604,1.162,2.185L42.351,148.794z"/>
	<path fill="#0C4838" d="M75.167,124.768c9.202,0,16.171,5.623,16.171,14.824c0,8.829-6.551,16.126-16.403,16.126
		c-11.2,0-15.986-8.411-15.986-15.522C58.949,133.83,63.875,124.768,75.167,124.768z M76.096,154.091
		c3.672,0,11.06-1.952,11.06-13.384c0-9.48-5.762-14.453-12.221-14.453c-6.832,0-11.758,4.276-11.758,12.872
		C63.177,148.329,68.708,154.091,76.096,154.091z"/>
	<path fill="#0C4838" d="M103.614,143.821c0,5.809,0.093,8.178,0.836,8.876c0.651,0.65,2.231,0.929,5.437,0.929
		c2.138,0,3.95-0.047,4.926-1.209c0.511-0.603,0.837-1.44,0.976-2.23c0.047-0.279,0.186-0.511,0.419-0.511
		c0.185,0,0.278,0.185,0.278,0.604c0,0.418-0.278,2.788-0.604,3.95c-0.278,0.929-0.418,1.069-2.603,1.069
		c-2.928,0-5.204-0.047-7.109-0.14c-1.859-0.047-3.254-0.093-4.461-0.093c-0.186,0-0.883,0-1.673,0.047
		c-0.836,0.047-1.719,0.093-2.37,0.093c-0.418,0-0.651-0.093-0.651-0.326c0-0.139,0.093-0.325,0.326-0.325
		c0.371,0,0.883-0.093,1.254-0.186c0.79-0.185,0.883-0.929,1.069-2.09c0.232-1.627,0.232-4.741,0.232-8.551v-6.971
		c0-6.135,0-7.249-0.092-8.504c-0.093-1.347-0.326-1.998-1.673-2.185c-0.325-0.045-1.022-0.092-1.394-0.092
		c-0.14,0-0.326-0.186-0.326-0.326c0-0.232,0.186-0.325,0.651-0.325c1.859,0,4.415,0.093,4.648,0.093
		c0.185,0,3.252-0.093,4.508-0.093c0.418,0,0.65,0.093,0.65,0.325c0,0.14-0.185,0.279-0.325,0.279c-0.278,0-0.883,0.047-1.347,0.093
		c-1.209,0.232-1.44,0.836-1.534,2.23c-0.047,1.255-0.047,2.37-0.047,8.504V143.821z"/>
	<path fill="#0C4838" d="M128.478,143.821c0,5.809,0.093,8.178,0.836,8.876c0.651,0.65,2.231,0.929,5.437,0.929
		c2.138,0,3.95-0.047,4.926-1.209c0.511-0.603,0.837-1.44,0.976-2.23c0.047-0.279,0.186-0.511,0.419-0.511
		c0.185,0,0.278,0.185,0.278,0.604c0,0.418-0.278,2.788-0.604,3.95c-0.278,0.929-0.418,1.069-2.603,1.069
		c-2.928,0-5.204-0.047-7.109-0.14c-1.859-0.047-3.254-0.093-4.461-0.093c-0.186,0-0.883,0-1.673,0.047
		c-0.836,0.047-1.719,0.093-2.37,0.093c-0.418,0-0.651-0.093-0.651-0.326c0-0.139,0.093-0.325,0.326-0.325
		c0.371,0,0.883-0.093,1.254-0.186c0.791-0.185,0.883-0.929,1.069-2.09c0.232-1.627,0.232-4.741,0.232-8.551v-6.971
		c0-6.135,0-7.249-0.092-8.504c-0.093-1.347-0.326-1.998-1.673-2.185c-0.325-0.045-1.022-0.092-1.394-0.092
		c-0.14,0-0.325-0.186-0.325-0.326c0-0.232,0.185-0.325,0.65-0.325c1.859,0,4.415,0.093,4.648,0.093
		c0.185,0,3.252-0.093,4.508-0.093c0.418,0,0.65,0.093,0.65,0.325c0,0.14-0.185,0.279-0.325,0.279c-0.278,0-0.883,0.047-1.347,0.093
		c-1.209,0.232-1.44,0.836-1.534,2.23c-0.047,1.255-0.047,2.37-0.047,8.504V143.821z"/>
	<path fill="#0C4838" d="M156.269,126.115c0.511-1.301,0.696-1.532,0.976-1.532c0.418,0,0.558,0.557,0.976,1.44
		c0.743,1.672,7.296,17.983,9.805,23.978c1.487,3.532,2.603,4.043,3.485,4.323c0.604,0.185,1.209,0.232,1.627,0.232
		c0.232,0,0.511,0.093,0.511,0.325c0,0.233-0.465,0.326-0.929,0.326c-0.604,0-3.625,0-6.459-0.093
		c-0.791-0.047-1.44-0.047-1.44-0.279c0-0.185,0.092-0.185,0.278-0.278c0.233-0.093,0.651-0.418,0.371-1.069l-3.67-9.062
		c-0.093-0.185-0.14-0.232-0.371-0.232h-9.434c-0.186,0-0.326,0.093-0.419,0.325l-2.323,6.321c-0.371,0.976-0.604,1.952-0.604,2.648
		c0,0.791,0.698,1.069,1.394,1.069h0.373c0.325,0,0.418,0.14,0.418,0.325c0,0.233-0.233,0.326-0.604,0.326
		c-0.976,0-3.206-0.14-3.67-0.14c-0.419,0-2.464,0.14-4.136,0.14c-0.511,0-0.791-0.093-0.791-0.326c0-0.185,0.186-0.325,0.373-0.325
		c0.278,0,0.883-0.047,1.208-0.093c1.859-0.232,2.649-1.627,3.439-3.624L156.269,126.115z M160.823,142.566
		c0.185,0,0.185-0.093,0.139-0.278l-4.042-10.828c-0.233-0.604-0.465-0.604-0.698,0l-3.81,10.828c-0.047,0.185,0,0.278,0.139,0.278
		H160.823z"/>
	<path fill="#0C4838" d="M176.022,154.649c-0.557-0.279-0.603-0.418-0.603-1.487c0-1.952,0.185-3.532,0.232-4.183
		c0-0.418,0.093-0.65,0.325-0.65c0.233,0,0.373,0.139,0.373,0.465c0,0.325,0,0.883,0.139,1.44c0.651,2.881,3.718,3.903,6.459,3.903
		c4.043,0,6.135-2.278,6.135-5.252c0-2.834-1.534-4.182-5.159-6.878l-1.859-1.394c-4.415-3.299-5.855-5.715-5.855-8.458
		c0-4.646,3.672-7.435,9.062-7.435c1.626,0,3.252,0.233,4.228,0.465c0.791,0.186,1.116,0.186,1.44,0.186
		c0.326,0,0.418,0.047,0.418,0.278c0,0.186-0.185,1.487-0.185,4.183c0,0.604-0.047,0.883-0.326,0.883
		c-0.278,0-0.325-0.185-0.371-0.511c-0.047-0.465-0.371-1.534-0.604-1.952c-0.278-0.465-1.626-1.952-5.297-1.952
		c-2.974,0-5.437,1.487-5.437,4.275c0,2.51,1.255,3.95,5.297,6.692l1.162,0.79c4.972,3.392,6.692,6.135,6.692,9.527
		c0,2.323-0.884,4.833-3.811,6.739c-1.719,1.114-4.275,1.394-6.506,1.394C180.066,155.718,177.696,155.438,176.022,154.649z"/>
	<path fill="#0C4838" d="M212.737,143.728c0,3.81,0,6.924,0.186,8.551c0.14,1.161,0.325,1.905,1.58,2.09
		c0.558,0.093,1.487,0.186,1.859,0.186c0.279,0,0.325,0.186,0.325,0.325c0,0.186-0.185,0.326-0.65,0.326
		c-2.231,0-4.833-0.14-5.066-0.14c-0.186,0-3.021,0.14-4.228,0.14c-0.465,0-0.651-0.093-0.651-0.326
		c0-0.139,0.093-0.278,0.325-0.278c0.371,0,0.837-0.093,1.209-0.186c0.836-0.185,1.069-0.976,1.208-2.137
		c0.186-1.627,0.186-4.741,0.186-8.551v-16.591l-5.902,0.093c-2.556,0.047-3.532,0.326-4.136,1.255
		c-0.465,0.696-0.511,0.976-0.65,1.254c-0.093,0.325-0.233,0.371-0.419,0.371c-0.092,0-0.278-0.092-0.278-0.325
		c0-0.418,0.79-3.95,0.883-4.275c0.047-0.233,0.279-0.744,0.418-0.744c0.279,0,0.698,0.325,1.813,0.465
		c1.161,0.14,2.741,0.186,3.206,0.186h15.428c1.347,0,2.277-0.093,2.928-0.186c0.604-0.093,0.976-0.185,1.162-0.185
		c0.185,0,0.185,0.232,0.185,0.465c0,1.208-0.139,4.042-0.139,4.508c0,0.325-0.186,0.511-0.373,0.511
		c-0.185,0-0.278-0.14-0.325-0.698l-0.047-0.418c-0.14-1.209-1.022-2.091-4.926-2.185l-5.112-0.093V143.728z"/>
	<path fill="#0C4838" d="M242.668,124.768c9.202,0,16.173,5.623,16.173,14.824c0,8.829-6.553,16.126-16.404,16.126
		c-11.2,0-15.986-8.411-15.986-15.522C226.45,133.83,231.376,124.768,242.668,124.768z M243.597,154.091
		c3.672,0,11.06-1.952,11.06-13.384c0-9.48-5.762-14.453-12.221-14.453c-6.832,0-11.758,4.276-11.758,12.872
		C230.678,148.329,236.209,154.091,243.597,154.091z"/>
	<path fill="#0C4838" d="M269.116,149.816c0.093,3.252,0.465,4.228,1.58,4.508c0.743,0.185,1.672,0.232,2.045,0.232
		c0.185,0,0.325,0.14,0.325,0.325c0,0.233-0.278,0.326-0.743,0.326c-2.324,0-3.951-0.14-4.323-0.14s-2.091,0.14-3.95,0.14
		c-0.418,0-0.65-0.047-0.65-0.326c0-0.185,0.139-0.325,0.325-0.325c0.325,0,1.069-0.047,1.672-0.232
		c1.022-0.279,1.162-1.349,1.162-4.927v-22.631c0-1.58,0.233-1.998,0.558-1.998c0.465,0,1.162,0.791,1.58,1.209
		c0.651,0.65,6.599,6.971,12.919,13.477c4.043,4.182,8.411,8.876,9.665,10.177l-0.418-19.797c-0.047-2.556-0.278-3.439-1.534-3.672
		c-0.743-0.139-1.672-0.185-1.998-0.185c-0.278,0-0.325-0.233-0.325-0.373c0-0.232,0.325-0.278,0.79-0.278
		c1.86,0,3.811,0.093,4.276,0.093s1.812-0.093,3.485-0.093c0.418,0,0.743,0.047,0.743,0.278c0,0.14-0.185,0.373-0.465,0.373
		c-0.186,0-0.511,0-0.976,0.092c-1.347,0.279-1.44,1.069-1.44,3.44l-0.093,23.142c0,2.603-0.047,2.834-0.325,2.834
		c-0.418,0-0.837-0.325-3.114-2.416c-0.418-0.371-6.32-6.181-10.641-10.688c-4.741-4.972-9.342-9.806-10.596-11.2L269.116,149.816z"
		/>
	<path fill="#8DA66E" d="M31.365,187.754c0-2.869-0.082-3.285-1.58-3.576c-0.29-0.042-0.914-0.082-1.247-0.082
		c-0.124,0-0.291-0.167-0.291-0.291c0-0.25,0.167-0.291,0.583-0.291c1.663,0,4.116,0.084,4.324,0.084
		c0.167,0,2.453-0.084,3.576-0.084c0.416,0,0.583,0.042,0.583,0.291c0,0.124-0.167,0.291-0.291,0.291c-0.25,0-0.499,0-0.915,0.082
		c-0.999,0.167-1.289,0.707-1.372,1.954c-0.042,1.123-0.042,2.163-0.042,3.66v3.95c0,1.622-0.041,1.664-0.498,1.912
		c-2.329,1.206-5.656,1.58-7.776,1.58c-2.787,0-7.984-0.332-12.059-3.784c-2.246-1.87-4.366-5.654-4.366-10.062
		c0-5.656,2.869-9.647,6.112-11.602c3.285-1.996,6.944-2.246,9.73-2.246c2.329,0,4.907,0.416,5.614,0.583
		c0.749,0.166,2.038,0.374,2.953,0.374c0.374,0,0.457,0.166,0.457,0.332c0,0.499-0.208,1.456-0.208,4.99
		c0,0.582-0.167,0.749-0.417,0.749c-0.208,0-0.25-0.208-0.25-0.541c-0.041-0.457-0.248-1.497-0.831-2.328
		c-0.915-1.331-3.7-2.745-8.441-2.745c-2.204,0-4.865,0.166-7.65,2.287c-2.121,1.621-3.618,4.781-3.618,8.897
		c0,4.99,2.579,8.566,3.868,9.772c2.911,2.703,5.988,3.702,9.356,3.702c1.289,0,2.993-0.125,3.95-0.665
		c0.457-0.25,0.748-0.416,0.748-1.081V187.754z"/>
	<path fill="#8DA66E" d="M64.384,169.541c8.233,0,14.471,5.032,14.471,13.264c0,7.901-5.863,14.429-14.678,14.429
		c-10.021,0-14.303-7.526-14.303-13.888C49.873,177.65,54.28,169.541,64.384,169.541z M65.216,195.779
		c3.285,0,9.896-1.746,9.896-11.975c0-8.483-5.156-12.932-10.936-12.932c-6.112,0-10.519,3.826-10.519,11.518
		C53.656,190.623,58.604,195.779,65.216,195.779z"/>
	<path fill="#8DA66E" d="M98.151,186.589c0,5.198,0.084,7.318,0.749,7.943c0.582,0.582,1.996,0.831,4.865,0.831
		c1.912,0,3.534-0.042,4.407-1.081c0.457-0.541,0.748-1.29,0.873-1.996c0.042-0.25,0.166-0.457,0.374-0.457
		c0.166,0,0.25,0.166,0.25,0.54c0,0.375-0.25,2.495-0.541,3.534c-0.248,0.833-0.374,0.957-2.328,0.957
		c-2.619,0-4.657-0.042-6.362-0.124c-1.664-0.042-2.911-0.084-3.992-0.084c-0.167,0-0.791,0-1.498,0.042
		c-0.748,0.042-1.538,0.082-2.12,0.082c-0.374,0-0.582-0.082-0.582-0.29c0-0.125,0.082-0.291,0.29-0.291
		c0.333,0,0.791-0.084,1.123-0.166c0.707-0.166,0.791-0.831,0.957-1.872c0.208-1.455,0.208-4.241,0.208-7.65v-6.237
		c0-5.488,0-6.487-0.084-7.61c-0.082-1.205-0.29-1.788-1.497-1.954c-0.291-0.042-0.915-0.084-1.247-0.084
		c-0.125,0-0.291-0.166-0.291-0.29c0-0.208,0.166-0.291,0.582-0.291c1.664,0,3.951,0.084,4.159,0.084
		c0.166,0,2.911-0.084,4.032-0.084c0.375,0,0.583,0.084,0.583,0.291c0,0.124-0.166,0.25-0.291,0.25c-0.25,0-0.79,0.041-1.205,0.082
		c-1.082,0.208-1.29,0.749-1.372,1.996c-0.042,1.123-0.042,2.121-0.042,7.61V186.589z"/>
	<path fill="#8DA66E" d="M125.39,180.269c0-5.488,0-6.487-0.084-7.61c-0.082-1.205-0.29-1.788-1.497-1.954
		c-0.291-0.042-0.915-0.084-1.247-0.084c-0.125,0-0.291-0.166-0.291-0.29c0-0.208,0.166-0.291,0.582-0.291
		c1.664,0,3.951,0.084,4.159,0.084c0.706,0,8.649,0.041,9.48,0c0.707-0.042,1.331-0.042,1.663-0.167
		c0.208-0.041,0.375-0.208,0.499-0.208c0.166,0,0.25,0.167,0.25,0.333c0,0.25-0.166,0.665-0.291,1.663
		c-0.042,0.333-0.082,1.913-0.166,2.329c-0.042,0.166-0.166,0.374-0.332,0.374c-0.167,0-0.291-0.166-0.291-0.416
		c0-0.291-0.125-0.873-0.333-1.331c-0.208-0.457-1.081-1.039-2.494-1.039l-5.988-0.084c-0.208,0-0.291,0.084-0.291,0.374v9.647
		c0,0.208,0,0.332,0.25,0.332l4.989-0.041c0.623,0,1.165,0,1.664-0.042c0.873-0.084,1.372-0.208,1.704-0.623
		c0.166-0.209,0.333-0.375,0.457-0.375c0.166,0,0.208,0.125,0.208,0.291c0,0.208-0.25,0.79-0.332,1.954
		c-0.084,0.707-0.125,2.121-0.125,2.37c0,0.333-0.082,0.707-0.332,0.707c-0.208,0-0.25-0.166-0.25-0.332
		c-0.042-0.375-0.084-0.873-0.25-1.289c-0.166-0.499-0.749-0.957-1.872-1.123c-0.914-0.125-5.239-0.084-5.862-0.084
		c-0.208,0-0.25,0.084-0.25,0.332v2.828c0,3.493,0,6.278,0.166,7.65c0.125,1.04,0.333,1.706,1.331,1.872
		c0.541,0.082,1.331,0.166,1.664,0.166c0.208,0,0.29,0.166,0.29,0.291c0,0.166-0.166,0.29-0.582,0.29
		c-2.038,0-4.407-0.124-4.573-0.124c-0.208,0-2.495,0.124-3.618,0.124c-0.374,0-0.582-0.082-0.582-0.29
		c0-0.125,0.082-0.291,0.29-0.291c0.333,0,0.791-0.124,1.123-0.166c0.707-0.125,0.791-0.831,0.957-1.872
		c0.208-1.455,0.208-4.241,0.208-7.65V180.269z"/>
	<path fill="#8DA66E" d="M170.8,193.45c-3.576-3.077-4.449-7.11-4.449-10.478c0-2.371,0.873-6.487,4.116-9.647
		c2.204-2.12,5.53-3.784,11.144-3.784c1.455,0,3.534,0.125,5.322,0.416c1.372,0.25,2.536,0.499,3.742,0.541
		c0.374,0,0.457,0.166,0.457,0.374c0,0.291-0.084,0.707-0.166,1.996c-0.042,1.165-0.042,3.119-0.084,3.618
		c-0.042,0.54-0.208,0.749-0.416,0.749c-0.25,0-0.291-0.25-0.291-0.749c0-1.372-0.582-2.785-1.538-3.534
		c-1.289-1.081-3.95-1.954-7.193-1.954c-4.699,0-6.944,1.247-8.233,2.453c-2.703,2.494-3.285,5.654-3.285,9.231
		c0,6.777,5.363,12.807,13.181,12.807c2.745,0,4.573-0.208,6.029-1.663c0.79-0.791,1.289-2.287,1.414-2.953
		c0.082-0.374,0.124-0.499,0.374-0.499c0.166,0,0.332,0.25,0.332,0.499s-0.498,3.326-0.873,4.533
		c-0.208,0.665-0.29,0.79-0.915,1.039c-1.497,0.582-4.24,0.79-6.611,0.79C177.37,197.234,173.669,195.945,170.8,193.45z"/>
	<path fill="#8DA66E" d="M211.594,186.589c0,5.198,0.084,7.318,0.749,7.943c0.582,0.582,1.996,0.831,4.865,0.831
		c1.912,0,3.534-0.042,4.407-1.081c0.457-0.541,0.748-1.29,0.873-1.996c0.042-0.25,0.166-0.457,0.374-0.457
		c0.166,0,0.25,0.166,0.25,0.54c0,0.375-0.25,2.495-0.541,3.534c-0.248,0.833-0.374,0.957-2.328,0.957
		c-2.619,0-4.657-0.042-6.362-0.124c-1.664-0.042-2.911-0.084-3.992-0.084c-0.167,0-0.791,0-1.498,0.042
		c-0.748,0.042-1.538,0.082-2.12,0.082c-0.374,0-0.582-0.082-0.582-0.29c0-0.125,0.082-0.291,0.29-0.291
		c0.333,0,0.791-0.084,1.123-0.166c0.707-0.166,0.791-0.831,0.957-1.872c0.208-1.455,0.208-4.241,0.208-7.65v-6.237
		c0-5.488,0-6.487-0.084-7.61c-0.082-1.205-0.29-1.788-1.497-1.954c-0.291-0.042-0.915-0.084-1.247-0.084
		c-0.125,0-0.291-0.166-0.291-0.29c0-0.208,0.166-0.291,0.582-0.291c1.664,0,3.951,0.084,4.159,0.084
		c0.166,0,2.911-0.084,4.032-0.084c0.375,0,0.583,0.084,0.583,0.291c0,0.124-0.166,0.25-0.291,0.25c-0.25,0-0.79,0.041-1.205,0.082
		c-1.082,0.208-1.29,0.749-1.372,1.996c-0.042,1.123-0.042,2.121-0.042,7.61V186.589z"/>
	<path fill="#8DA66E" d="M236.754,180.269c0-5.488,0-6.487-0.082-7.61c-0.084-1.123-0.291-1.788-1.498-1.954
		c-0.29-0.042-0.914-0.084-1.247-0.084c-0.124,0-0.291-0.166-0.291-0.29c0-0.208,0.167-0.291,0.583-0.291
		c1.663,0,3.866,0.084,4.2,0.084c0.332,0,2.619-0.084,3.7-0.084c0.416,0,0.623,0.084,0.623,0.291c0,0.124-0.166,0.29-0.332,0.29
		c-0.25,0-0.457,0-0.915,0.084c-0.957,0.166-1.165,0.79-1.247,1.954c-0.084,1.123-0.084,2.121-0.084,7.61v4.949
		c0,5.113,1.123,7.235,2.703,8.649c1.788,1.621,3.368,1.912,5.447,1.912c2.246,0,4.407-0.999,5.656-2.495
		c1.704-2.038,2.078-4.947,2.078-8.565v-4.449c0-5.488-0.041-6.487-0.082-7.61s-0.25-1.788-1.456-1.954
		c-0.29-0.042-0.915-0.084-1.247-0.084c-0.166,0-0.291-0.166-0.291-0.29c0-0.208,0.167-0.291,0.583-0.291
		c1.621,0,3.742,0.084,3.95,0.084c0.25,0,1.996-0.084,3.077-0.084c0.416,0,0.582,0.084,0.582,0.291c0,0.124-0.124,0.29-0.29,0.29
		c-0.25,0-0.457,0-0.915,0.084c-0.999,0.208-1.206,0.79-1.289,1.954c-0.084,1.123-0.042,2.121-0.042,7.61v3.784
		c0,3.826-0.499,8.108-3.41,10.603c-2.661,2.287-5.488,2.578-7.65,2.578c-1.206,0-5.032-0.082-7.61-2.494
		c-1.788-1.664-3.202-4.117-3.202-9.274V180.269z"/>
	<path fill="#8DA66E" d="M277.382,180.269c0-5.488,0-6.487-0.084-7.61c-0.082-1.205-0.29-1.87-1.497-2.038
		c-0.291-0.041-0.915-0.082-1.247-0.082c-0.125,0-0.291-0.084-0.291-0.208c0-0.208,0.166-0.291,0.582-0.291
		c1.664,0,4.034,0.084,4.241,0.084c0.873,0,2.579-0.084,4.283-0.084c6.112,0,7.692,3.534,7.692,5.406c0,2.785-1.83,4.532-3.7,6.196
		c2.785,0.831,6.445,3.367,6.445,7.359c0,3.951-2.953,7.859-9.19,7.859c-0.665,0-1.996-0.042-3.159-0.124
		c-1.165-0.042-2.204-0.084-2.371-0.084c-0.082,0-0.748,0.042-1.497,0.042c-0.749,0.042-1.622,0.082-2.204,0.082
		c-0.374,0-0.582-0.082-0.582-0.29c0-0.125,0.082-0.208,0.29-0.208c0.333,0,0.791-0.125,1.123-0.167
		c0.707-0.124,0.791-0.914,0.957-1.954c0.208-1.455,0.208-4.241,0.208-7.65V180.269z M280.542,181.017
		c0,0.25,0.082,0.333,0.25,0.375c0.208,0.042,0.873,0.166,2.244,0.166c2.038,0,2.828-0.084,3.576-0.915
		c0.791-0.873,1.414-2.078,1.414-3.784c0-2.703-1.497-5.696-5.156-5.696c-0.416,0-1.289,0.042-1.87,0.166
		c-0.333,0.084-0.457,0.166-0.457,0.374V181.017z M280.542,184.926c0,2.744,0,6.985,0.042,7.526c0.124,1.704,0.124,2.12,1.247,2.661
		c0.997,0.457,2.536,0.499,3.201,0.499c2.413,0,5.364-0.915,5.364-5.448c0-1.58-0.624-4.615-3.493-6.445
		c-1.247-0.79-2.412-0.748-3.285-0.915c-0.457-0.082-2.287-0.082-2.869-0.082c-0.125,0-0.208,0.082-0.208,0.25V184.926z"/>
</g>
<g>
	<path fill="#8CA56C" d="M163.955,90.496c0,7.435,3.013,11.155,9.042,11.155c5.635,0,12.602-3.329,20.9-9.981
		c9.08-7.201,15.303-14.795,18.669-22.779c3.835-9.001,5.754-16.673,5.754-23.014c0-6.34-1.273-11.114-3.816-14.325
		c-2.544-3.208-6.046-4.814-10.509-4.814c-1.018,0-2.075,0.079-3.17,0.234c-1.879,0.469-3.269,0.705-4.169,0.705
		c-0.9,0-1.35-0.235-1.35-0.705c0-0.705,0.723-1.369,2.171-1.996c1.448-0.626,2.543-0.939,3.288-0.939c0.743,0,1.35,0,1.819,0
		c0.471,0,1.016,0,1.645,0c4.461,0,8.551,1.761,12.27,5.283c3.716,3.523,6.124,8.69,7.22,15.499c0.235,1.645,0.352,3.329,0.352,5.05
		c0,5.793-1.37,12.368-4.11,19.726c-3.835,9.707-10.431,17.964-19.785,24.775c-9.355,6.809-17.946,10.215-25.772,10.215
		c-8.142,0-13.152-3.758-15.029-11.272c-0.549-1.955-0.823-4.618-0.823-7.985c0-3.365,0.823-7.75,2.467-13.151
		c-4.227,7.046-9.707,14.677-16.439,22.897c-3.68,4.382-7.438,8.022-11.272,10.919c-4.07,3.053-7.514,4.58-10.333,4.58
		c-5.559,0-8.336-3.367-8.336-10.098c0-7.906,5.125-24.031,15.382-48.377c6.418-15.499,9.628-27.123,9.628-34.873
		c0-5.008-1.509-8.472-4.521-10.392c-3.015-1.917-6.596-2.876-10.744-2.876c-1.801,0-3.68,0.196-5.637,0.586
		c-13.854,2.818-26.145,10.295-36.869,22.427c-5.323,6.106-9.002,11.959-11.038,17.555c-2.036,5.597-3.19,9.745-3.464,12.446
		c-0.275,2.701-0.411,4.932-0.411,6.692c0,1.762,0.332,3.778,0.999,6.047c0.664,2.271,1.82,4.385,3.464,6.34
		c3.053,3.523,7.318,5.284,12.799,5.284c9.08,0,16.281-4.735,21.605-14.208c2.739-4.853,4.11-9.235,4.11-13.151
		c0-6.418-2.858-9.628-8.572-9.628c-0.939,0-2.113,0.118-3.522,0.352c-1.408,0.235-2.075,0.079-1.996-0.469
		c0.078-0.547,1.134-1.134,3.17-1.762c2.035-0.625,4.069-0.939,6.106-0.939c4.069,0,7.045,1.567,8.924,4.696
		c1.174,1.958,1.762,4.268,1.762,6.928c0,2.662-0.745,5.754-2.231,9.276c-3.992,9.159-11.155,15.892-21.488,20.196
		c-2.74,1.174-5.283,1.762-7.631,1.762c-7.673,0-13.779-2.739-18.318-8.219c-3.211-3.758-5.244-8.611-6.106-14.56
		c-0.155-1.174-0.234-2.387-0.234-3.639c0-5.009,1.273-10.431,3.816-16.263c2.543-5.83,6.007-11.252,10.391-16.262
		c4.382-5.008,9.158-9.197,14.325-12.563c5.166-3.365,10.605-6.184,16.321-8.454c5.948-2.269,11.467-3.405,16.556-3.405
		c5.087,0,9.705,0.784,13.855,2.348c7.514,3.288,11.272,9.59,11.272,18.904c0,7.673-2.624,17.457-7.866,29.354
		c-3.603,8.064-7.046,16.714-10.333,25.949c-4.696,13.151-7.045,21.723-7.045,25.715c0,2.818,0.977,4.227,2.935,4.227
		c1.016,0,2.231-0.469,3.64-1.41c4.226-2.506,8.845-7.241,13.854-14.208c5.01-6.966,10.216-15.068,15.617-24.305
		c5.401-9.235,9.235-15.42,11.507-18.552c2.269-3.129,4.227-4.696,5.871-4.696c0.391,0,0.781,0.079,1.174,0.235
		c1.016,0.548,1.526,1.605,1.526,3.17c0,1.567-0.216,2.976-0.646,4.227c-0.431,1.253-2.447,6.243-6.046,14.971
		c-3.603,8.729-5.598,14.482-5.989,17.26C164.15,86.993,163.955,89.086,163.955,90.496z"/>
</g>
</svg>
